<svg width="33" height="33" viewBox="0 0 33 33" fill="none" xmlns="http://www.w3.org/2000/svg">
<g id="Arrow">
<g id="Group">
<g id="Group_2">
<path id="Vector" d="M17.875 28.875V7.4443L25.1529 14.7222C25.28 14.8522 25.4317 14.9557 25.5992 15.0267C25.7666 15.0977 25.9465 15.1347 26.1283 15.1357C26.3102 15.1367 26.4904 15.1017 26.6586 15.0325C26.8268 14.9634 26.9797 14.8616 27.1082 14.7329C27.2368 14.6043 27.3386 14.4515 27.4077 14.2833C27.4768 14.1151 27.5119 13.9348 27.5109 13.7529C27.5098 13.5711 27.4727 13.3912 27.4017 13.2238C27.3307 13.0564 27.2272 12.9047 27.0971 12.7776L17.4721 3.15258C17.2143 2.89481 16.8646 2.75 16.5 2.75C16.1354 2.75 15.7857 2.89481 15.5279 3.15258L5.90288 12.7776C5.77495 12.9051 5.6735 13.0567 5.60436 13.2236C5.53522 13.3905 5.49975 13.5694 5.5 13.75C5.50006 14.022 5.58073 14.2877 5.73182 14.5138C5.88291 14.7399 6.09764 14.9161 6.34885 15.0201C6.60006 15.1242 6.87648 15.1514 7.14317 15.0984C7.40986 15.0453 7.65483 14.9144 7.84713 14.7222L15.125 7.4443V28.875C15.125 29.2397 15.2699 29.5895 15.5277 29.8473C15.7856 30.1052 16.1353 30.25 16.5 30.25C16.8647 30.25 17.2144 30.1052 17.4723 29.8473C17.7301 29.5895 17.875 29.2397 17.875 28.875Z" fill="#00FFED"/>
</g>
</g>
</g>
</svg>
