<svg width="71" height="71" viewBox="0 0 71 71" fill="none" xmlns="http://www.w3.org/2000/svg">
<g filter="url(#filter0_d_2557_10108)">
<circle cx="35.5" cy="31.5" r="31.5" fill="#D9D9D9" fill-opacity="0.1" shape-rendering="crispEdges"/>
<circle cx="35.5" cy="31.5" r="30.5" stroke="#59C1BD" stroke-width="2" shape-rendering="crispEdges"/>
</g>
<path d="M36.875 43.8746V22.4438L44.1529 29.7217C44.28 29.8517 44.4317 29.9552 44.5992 30.0262C44.7666 30.0972 44.9465 30.1342 45.1283 30.1352C45.3102 30.1363 45.4904 30.1012 45.6586 30.032C45.8268 29.9629 45.9797 29.8611 46.1082 29.7325C46.2368 29.6038 46.3386 29.451 46.4077 29.2828C46.4768 29.1146 46.5119 28.9343 46.5109 28.7525C46.5098 28.5706 46.4727 28.3907 46.4017 28.2233C46.3307 28.0559 46.2272 27.9042 46.0971 27.7771L36.4721 18.1521C36.2143 17.8943 35.8646 17.7495 35.5 17.7495C35.1354 17.7495 34.7857 17.8943 34.5279 18.1521L24.9029 27.7771C24.7749 27.9046 24.6735 28.0562 24.6044 28.2231C24.5352 28.39 24.4998 28.5689 24.5 28.7496C24.5001 29.0215 24.5807 29.2873 24.7318 29.5133C24.8829 29.7394 25.0976 29.9156 25.3489 30.0196C25.6001 30.1237 25.8765 30.1509 26.1432 30.0979C26.4099 30.0448 26.6548 29.9139 26.8471 29.7217L34.125 22.4438V43.8746C34.125 44.2392 34.2699 44.589 34.5277 44.8468C34.7856 45.1047 35.1353 45.2496 35.5 45.2496C35.8647 45.2496 36.2144 45.1047 36.4723 44.8468C36.7301 44.589 36.875 44.2392 36.875 43.8746Z" fill="#00FFED"/>
<defs>
<filter id="filter0_d_2557_10108" x="0" y="0" width="71" height="71" filterUnits="userSpaceOnUse" color-interpolation-filters="sRGB">
<feFlood flood-opacity="0" result="BackgroundImageFix"/>
<feColorMatrix in="SourceAlpha" type="matrix" values="0 0 0 0 0 0 0 0 0 0 0 0 0 0 0 0 0 0 127 0" result="hardAlpha"/>
<feOffset dy="4"/>
<feGaussianBlur stdDeviation="2"/>
<feComposite in2="hardAlpha" operator="out"/>
<feColorMatrix type="matrix" values="0 0 0 0 0 0 0 0 0 0 0 0 0 0 0 0 0 0 0.25 0"/>
<feBlend mode="normal" in2="BackgroundImageFix" result="effect1_dropShadow_2557_10108"/>
<feBlend mode="normal" in="SourceGraphic" in2="effect1_dropShadow_2557_10108" result="shape"/>
</filter>
</defs>
</svg>
