<svg width="30" height="30" viewBox="0 0 30 30" fill="none" xmlns="http://www.w3.org/2000/svg">
<g filter="url(#filter0_d_2557_10207)">
<circle cx="15" cy="11" r="11" fill="#D9D9D9" fill-opacity="0.1" shape-rendering="crispEdges"/>
<circle cx="15" cy="11" r="10.5" stroke="#1E88E5" shape-rendering="crispEdges"/>
</g>
<path d="M18.7445 9.14486C18.5757 9.14486 18.419 9.19529 18.2878 9.28065C18.2523 8.86079 17.8981 8.52866 17.4628 8.52866C17.2731 8.52866 17.1001 8.59395 16.9599 8.69961C16.8436 8.3852 16.5399 8.15889 16.1808 8.15889C16.0149 8.15889 15.8609 8.2082 15.731 8.29093V7.23485C15.731 6.78306 15.3579 6.41548 14.8991 6.41548C14.4403 6.41548 14.0672 6.78306 14.0672 7.23485V10.7017L13.5767 10.315C13.417 10.189 13.2168 10.1328 13.0143 10.1555C12.8102 10.1785 12.6283 10.2789 12.5018 10.4381C12.3024 10.6891 12.2863 11.0377 12.4617 11.3055L14.4524 14.3438C14.5002 14.4169 14.5256 14.5019 14.5256 14.5891V15.2292C14.5256 15.3317 14.611 15.4147 14.7166 15.4147C14.8222 15.4147 14.9077 15.3317 14.9077 15.2292V14.5891C14.9077 14.4312 14.8618 14.2777 14.7748 14.145L12.7841 11.1067C12.6947 10.9701 12.7028 10.7925 12.8044 10.6646C12.8675 10.5851 12.9578 10.5352 13.0586 10.5238C13.1589 10.5127 13.2571 10.5408 13.3356 10.6029L14.0672 11.1796V11.6019C14.0672 11.7044 14.1526 11.7873 14.2582 11.7873C14.3638 11.7873 14.4493 11.7044 14.4493 11.6019V7.23485C14.4493 6.9875 14.6511 6.78632 14.8991 6.78632C15.147 6.78632 15.3489 6.9875 15.3489 7.23485V8.97809V10.7566C15.3489 10.8591 15.4344 10.9421 15.5399 10.9421C15.6456 10.9421 15.731 10.8591 15.731 10.7566V8.97809C15.731 8.73092 15.9329 8.52974 16.1808 8.52974C16.4288 8.52974 16.6306 8.73092 16.6306 8.97809V9.34803V10.968C16.6306 11.0704 16.7161 11.1534 16.8217 11.1534C16.9273 11.1534 17.0127 11.0704 17.0127 10.968V9.34803C17.0127 9.10068 17.2146 8.8995 17.4628 8.8995C17.7107 8.8995 17.9126 9.10068 17.9126 9.34803V9.96423V11.1793C17.9126 11.2818 17.998 11.3647 18.1036 11.3647C18.2092 11.3647 18.2947 11.2818 18.2947 11.1793V9.96423C18.2947 9.71688 18.4965 9.51571 18.7445 9.51571C18.9924 9.51571 19.1943 9.71688 19.1943 9.96423V12.0578C19.1943 12.5109 19.073 12.9576 18.8438 13.3495L18.4645 13.9977C18.3217 14.2416 18.2464 14.5192 18.2464 14.8006V15.2292C18.2464 15.3317 18.3318 15.4147 18.4374 15.4147C18.543 15.4147 18.6284 15.3317 18.6284 15.2292V14.8006C18.6284 14.5833 18.6867 14.3689 18.7965 14.181L19.1758 13.5327C19.438 13.0851 19.5764 12.575 19.5764 12.0578V9.96423C19.5764 9.51245 19.2033 9.14486 18.7445 9.14486ZM12.4267 8.08644C12.3453 8.0222 12.2267 8.03611 12.1622 8.117L12.0475 8.26123V7.5025H12.819L12.676 7.61778C12.5951 7.68293 12.5826 7.80096 12.6481 7.8813C12.6854 7.92705 12.7396 7.95084 12.7946 7.95084C12.8361 7.95084 12.878 7.93711 12.9128 7.90911L13.4332 7.48969C13.487 7.44577 13.5177 7.38172 13.5172 7.31365C13.5166 7.24575 13.485 7.18207 13.4306 7.13907L12.8986 6.71964C12.8172 6.65541 12.6986 6.66932 12.6341 6.7502C12.5696 6.83145 12.5834 6.9493 12.6648 7.01353L12.8097 7.12772H12.0475V6.35951L12.1635 6.50206C12.2291 6.58203 12.3471 6.59466 12.4284 6.52969C12.5091 6.46455 12.5216 6.34651 12.4562 6.266L12.0347 5.7483C11.9909 5.69505 11.9273 5.66467 11.8597 5.66467C11.8589 5.66467 11.8584 5.66467 11.8578 5.66467C11.7896 5.66522 11.7257 5.6967 11.6825 5.75086L11.2611 6.28027C11.1966 6.36134 11.2104 6.47919 11.2918 6.5436C11.3264 6.57087 11.3678 6.58404 11.4086 6.58404C11.4641 6.58404 11.5192 6.5597 11.5564 6.51304L11.6711 6.36887V7.12772H10.8994L11.0426 7.01225C11.1233 6.94711 11.1358 6.82907 11.0703 6.74856C11.0049 6.66859 10.8867 6.65578 10.8054 6.72092L10.2863 7.1398C10.2321 7.18335 10.2012 7.24722 10.2014 7.31529C10.2016 7.38318 10.2329 7.44723 10.288 7.49115L10.82 7.91039C10.8547 7.93766 10.8959 7.95084 10.9367 7.95084C10.9922 7.95084 11.0474 7.9265 11.0845 7.87983C11.149 7.79858 11.1352 7.68073 11.0538 7.6165L10.9091 7.5025H11.6711V8.2706L11.5551 8.12798C11.4896 8.04801 11.3712 8.03538 11.2902 8.10034C11.2095 8.16549 11.197 8.28352 11.2624 8.36404L11.6839 8.88192C11.7275 8.93517 11.7913 8.96555 11.8589 8.96555H11.86C11.9282 8.96518 11.992 8.93407 12.0361 8.87935L12.4574 8.34977C12.522 8.26852 12.5082 8.15067 12.4267 8.08644Z" fill="#1E88E5"/>
<defs>
<filter id="filter0_d_2557_10207" x="0" y="0" width="30" height="30" filterUnits="userSpaceOnUse" color-interpolation-filters="sRGB">
<feFlood flood-opacity="0" result="BackgroundImageFix"/>
<feColorMatrix in="SourceAlpha" type="matrix" values="0 0 0 0 0 0 0 0 0 0 0 0 0 0 0 0 0 0 127 0" result="hardAlpha"/>
<feOffset dy="4"/>
<feGaussianBlur stdDeviation="2"/>
<feComposite in2="hardAlpha" operator="out"/>
<feColorMatrix type="matrix" values="0 0 0 0 0 0 0 0 0 0 0 0 0 0 0 0 0 0 0.25 0"/>
<feBlend mode="normal" in2="BackgroundImageFix" result="effect1_dropShadow_2557_10207"/>
<feBlend mode="normal" in="SourceGraphic" in2="effect1_dropShadow_2557_10207" result="shape"/>
</filter>
</defs>
</svg>
