<svg width="13" height="13" viewBox="0 0 13 13" fill="none" xmlns="http://www.w3.org/2000/svg">
<g id="Free">
<path id="Vector" d="M10.7445 5.14486C10.5757 5.14486 10.419 5.19529 10.2878 5.28065C10.2523 4.86079 9.89811 4.52866 9.46275 4.52866C9.27306 4.52866 9.10007 4.59395 8.95995 4.69961C8.84361 4.3852 8.53988 4.15889 8.18083 4.15889C8.01488 4.15889 7.86093 4.2082 7.731 4.29093V3.23485C7.731 2.78306 7.35785 2.41548 6.89908 2.41548C6.4403 2.41548 6.06716 2.78306 6.06716 3.23485V6.70167L5.57666 6.31499C5.41696 6.18895 5.21676 6.13282 5.01433 6.15545C4.81022 6.17845 4.62832 6.27895 4.50183 6.43812C4.30239 6.68909 4.28634 7.03766 4.46171 7.30548L6.45242 10.3438C6.5002 10.4169 6.52556 10.5019 6.52556 10.5891V11.2292C6.52556 11.3317 6.61102 11.4147 6.71661 11.4147C6.82221 11.4147 6.90767 11.3317 6.90767 11.2292V10.5891C6.90767 10.4312 6.86177 10.2777 6.77482 10.145L4.78411 7.10665C4.69474 6.97012 4.70276 6.79248 4.80444 6.66465C4.86751 6.58515 4.95781 6.53518 5.05855 6.52376C5.15893 6.51272 5.25707 6.54078 5.33562 6.6029L6.06716 7.17962V7.6019C6.06716 7.70439 6.1526 7.78732 6.25821 7.78732C6.3638 7.78732 6.44925 7.70439 6.44925 7.6019V3.23485C6.44925 2.9875 6.65112 2.78632 6.89908 2.78632C7.14703 2.78632 7.3489 2.9875 7.3489 3.23485V4.97809V6.75664C7.3489 6.85913 7.43436 6.94206 7.53995 6.94206C7.64555 6.94206 7.731 6.85913 7.731 6.75664V4.97809C7.731 4.73092 7.93286 4.52974 8.18083 4.52974C8.42878 4.52974 8.63064 4.73092 8.63064 4.97809V5.34803V6.96795C8.63064 7.07044 8.7161 7.15337 8.82169 7.15337C8.9273 7.15337 9.01274 7.07044 9.01274 6.96795V5.34803C9.01274 5.10068 9.21462 4.8995 9.46275 4.8995C9.7107 4.8995 9.91257 5.10068 9.91257 5.34803V5.96423V7.17927C9.91257 7.28175 9.99802 7.36469 10.1036 7.36469C10.2092 7.36469 10.2947 7.28175 10.2947 7.17927V5.96423C10.2947 5.71688 10.4965 5.51571 10.7445 5.51571C10.9924 5.51571 11.1943 5.71688 11.1943 5.96423V8.05785C11.1943 8.51091 11.073 8.95763 10.8438 9.34948L10.4645 9.99774C10.3217 10.2416 10.2464 10.5192 10.2464 10.8006V11.2292C10.2464 11.3317 10.3318 11.4147 10.4374 11.4147C10.543 11.4147 10.6284 11.3317 10.6284 11.2292V10.8006C10.6284 10.5833 10.6867 10.3689 10.7965 10.181L11.1758 9.53274C11.438 9.08511 11.5764 8.57502 11.5764 8.05785V5.96423C11.5764 5.51245 11.2033 5.14486 10.7445 5.14486ZM4.42674 4.08644C4.34531 4.0222 4.22674 4.03611 4.16222 4.117L4.04752 4.26123V3.5025H4.81905L4.676 3.61778C4.59512 3.68293 4.58262 3.80096 4.64806 3.8813C4.68538 3.92705 4.7396 3.95084 4.79456 3.95084C4.83611 3.95084 4.87802 3.93711 4.91276 3.90911L5.43315 3.48969C5.48701 3.44577 5.51771 3.38172 5.51716 3.31365C5.51661 3.24575 5.48499 3.18207 5.43058 3.13907L4.89861 2.71964C4.81717 2.65541 4.69861 2.66932 4.63409 2.7502C4.56957 2.83145 4.58336 2.9493 4.66479 3.01353L4.80967 3.12772H4.04752V2.35951L4.16351 2.50206C4.22913 2.58203 4.34715 2.59466 4.4284 2.52969C4.50909 2.46455 4.52159 2.34651 4.45615 2.266L4.03465 1.7483C3.9909 1.69505 3.9273 1.66467 3.85966 1.66467C3.85892 1.66467 3.85837 1.66467 3.85782 1.66467C3.78962 1.66522 3.72565 1.6967 3.68245 1.75086L3.26114 2.28027C3.19662 2.36134 3.2104 2.47919 3.29184 2.5436C3.32639 2.57087 3.36775 2.58404 3.40856 2.58404C3.46408 2.58404 3.51922 2.5597 3.55635 2.51304L3.67106 2.36887V3.12772H2.89938L3.04258 3.01225C3.12327 2.94711 3.13577 2.82907 3.07033 2.74856C3.00489 2.66859 2.8867 2.65578 2.80545 2.72092L2.28634 3.1398C2.23211 3.18335 2.20123 3.24722 2.20142 3.31529C2.2016 3.38318 2.23285 3.44723 2.288 3.49115L2.81997 3.91039C2.85471 3.93766 2.89589 3.95084 2.9367 3.95084C2.99221 3.95084 3.04736 3.9265 3.08449 3.87983C3.14901 3.79858 3.13522 3.68073 3.05379 3.6165L2.90905 3.5025H3.67106V4.2706L3.55507 4.12798C3.48963 4.04801 3.37125 4.03538 3.29018 4.10034C3.20949 4.16549 3.19699 4.28352 3.26243 4.36404L3.68392 4.88192C3.72749 4.93517 3.79128 4.96555 3.85892 4.96555H3.86002C3.92822 4.96518 3.99201 4.93407 4.03612 4.87935L4.45744 4.34977C4.52196 4.26852 4.50817 4.15067 4.42674 4.08644Z" fill="#1E88E5"/>
</g>
</svg>
