<svg width="71" height="71" viewBox="0 0 71 71" fill="none" xmlns="http://www.w3.org/2000/svg">
<g filter="url(#filter0_d_2557_10102)">
<circle cx="35.5" cy="31.5" r="31.5" fill="#1E88E5" fill-opacity="0.1" shape-rendering="crispEdges"/>
<circle cx="35.5" cy="31.5" r="30.5" stroke="#1E88E5" stroke-width="2" shape-rendering="crispEdges"/>
</g>
<path d="M36.5723 14.0625H34.4273C31.9133 14.0655 29.5032 15.0657 27.7259 16.8437C25.9486 18.6218 24.9493 21.0323 24.9473 23.5463V39.4538C24.9493 41.9677 25.9486 44.3782 27.7259 46.1563C29.5032 47.9343 31.9133 48.9345 34.4273 48.9375H36.5723C39.0863 48.9345 41.4964 47.9343 43.2737 46.1563C45.051 44.3782 46.0503 41.9677 46.0523 39.4538V23.5463C46.0503 21.0323 45.051 18.6218 43.2737 16.8437C41.4964 15.0657 39.0863 14.0655 36.5723 14.0625ZM36.0623 19.2037C36.2862 19.3095 36.4756 19.4766 36.6084 19.6857C36.7411 19.8948 36.8118 20.1373 36.8123 20.385V25.7738C36.8118 26.0214 36.7411 26.2639 36.6084 26.473C36.4756 26.6821 36.2862 26.8493 36.0623 26.955C35.8873 27.0413 35.6948 27.0862 35.4998 27.0862C35.3047 27.0862 35.1122 27.0413 34.9373 26.955C34.7133 26.8493 34.5239 26.6821 34.3912 26.473C34.2584 26.2639 34.1877 26.0214 34.1873 25.7738V20.385C34.1877 20.1373 34.2584 19.8948 34.3912 19.6857C34.5239 19.4766 34.7133 19.3095 34.9373 19.2037C35.1122 19.1174 35.3047 19.0725 35.4998 19.0725C35.6948 19.0725 35.8873 19.1174 36.0623 19.2037ZM26.0723 23.5463C26.0742 21.3306 26.955 19.2063 28.5214 17.6392C30.0877 16.0722 32.2116 15.1905 34.4273 15.1875H34.9373V18C34.404 18.1272 33.9291 18.4301 33.589 18.86C33.2488 19.2899 33.0633 19.8218 33.0623 20.37V25.7738C33.0633 26.3219 33.2488 26.8538 33.589 27.2837C33.9291 27.7137 34.404 28.0166 34.9373 28.1437V30.9375H26.0723V23.5463ZM44.9273 39.4538C44.9253 41.6694 44.0445 43.7937 42.4782 45.3608C40.9118 46.9278 38.7879 47.8095 36.5723 47.8125H34.4273C32.2116 47.8095 30.0877 46.9278 28.5214 45.3608C26.955 43.7937 26.0742 41.6694 26.0723 39.4538V32.0625H35.3685C35.4549 32.0825 35.5447 32.0825 35.631 32.0625H44.9273V39.4538ZM44.9273 30.9375H36.0623V28.1437C36.5955 28.0166 37.0704 27.7137 37.4106 27.2837C37.7507 26.8538 37.9362 26.3219 37.9373 25.7738V20.385C37.9362 19.8368 37.7507 19.3049 37.4106 18.875C37.0704 18.4451 36.5955 18.1422 36.0623 18.015V15.1875H36.5723C38.7879 15.1905 40.9118 16.0722 42.4782 17.6392C44.0445 19.2063 44.9253 21.3306 44.9273 23.5463V30.9375Z" fill="#1E88E5"/>
<path d="M34.75 17.625V15.375C28.75 15.075 26.75 20.5 26.5 23.25V30.375H34.375V28.5C33.175 28.2 32.625 26.875 32.5 26.25V20.25C32.2 18.75 33.875 17.875 34.75 17.625Z" fill="#142B3D" stroke="#142B3D"/>
<defs>
<filter id="filter0_d_2557_10102" x="0" y="0" width="71" height="71" filterUnits="userSpaceOnUse" color-interpolation-filters="sRGB">
<feFlood flood-opacity="0" result="BackgroundImageFix"/>
<feColorMatrix in="SourceAlpha" type="matrix" values="0 0 0 0 0 0 0 0 0 0 0 0 0 0 0 0 0 0 127 0" result="hardAlpha"/>
<feOffset dy="4"/>
<feGaussianBlur stdDeviation="2"/>
<feComposite in2="hardAlpha" operator="out"/>
<feColorMatrix type="matrix" values="0 0 0 0 0 0 0 0 0 0 0 0 0 0 0 0 0 0 0.25 0"/>
<feBlend mode="normal" in2="BackgroundImageFix" result="effect1_dropShadow_2557_10102"/>
<feBlend mode="normal" in="SourceGraphic" in2="effect1_dropShadow_2557_10102" result="shape"/>
</filter>
</defs>
</svg>
