<svg width="39" height="39" viewBox="0 0 39 39" fill="none" xmlns="http://www.w3.org/2000/svg">
<g id="mouse">
<path id="1" d="M20.5725 2.0625H18.4275C15.9135 2.06548 13.5034 3.06573 11.7261 4.84374C9.9488 6.62175 8.94949 9.03226 8.94751 11.5463V27.4538C8.94949 29.9677 9.9488 32.3782 11.7261 34.1563C13.5034 35.9343 15.9135 36.9345 18.4275 36.9375H20.5725C23.0865 36.9345 25.4966 35.9343 27.2739 34.1563C29.0512 32.3782 30.0505 29.9677 30.0525 27.4538V11.5463C30.0505 9.03226 29.0512 6.62175 27.2739 4.84374C25.4966 3.06573 23.0865 2.06548 20.5725 2.0625ZM20.0625 7.20375C20.2865 7.3095 20.4759 7.47663 20.6086 7.68573C20.7414 7.89483 20.8121 8.13731 20.8125 8.385V13.7738C20.8121 14.0214 20.7414 14.2639 20.6086 14.473C20.4759 14.6821 20.2865 14.8493 20.0625 14.955C19.8876 15.0413 19.6951 15.0862 19.5 15.0862C19.3049 15.0862 19.1125 15.0413 18.9375 14.955C18.7135 14.8493 18.5242 14.6821 18.3914 14.473C18.2586 14.2639 18.1879 14.0214 18.1875 13.7738V8.385C18.1879 8.13731 18.2586 7.89483 18.3914 7.68573C18.5242 7.47663 18.7135 7.3095 18.9375 7.20375C19.1125 7.11743 19.3049 7.07253 19.5 7.07253C19.6951 7.07253 19.8876 7.11743 20.0625 7.20375ZM10.0725 11.5463C10.0745 9.33063 10.9553 7.20627 12.5216 5.63924C14.0879 4.07221 16.2119 3.19048 18.4275 3.1875H18.9375V6C18.4043 6.12715 17.9293 6.43008 17.5892 6.86C17.2491 7.28992 17.0636 7.82181 17.0625 8.37V13.7738C17.0636 14.3219 17.2491 14.8538 17.5892 15.2837C17.9293 15.7137 18.4043 16.0166 18.9375 16.1437V18.9375H10.0725V11.5463ZM28.9275 27.4538C28.9255 29.6694 28.0448 31.7937 26.4784 33.3608C24.9121 34.9278 22.7881 35.8095 20.5725 35.8125H18.4275C16.2119 35.8095 14.0879 34.9278 12.5216 33.3608C10.9553 31.7937 10.0745 29.6694 10.0725 27.4538V20.0625H19.3688C19.4551 20.0825 19.5449 20.0825 19.6313 20.0625H28.9275V27.4538ZM28.9275 18.9375H20.0625V16.1437C20.5958 16.0166 21.0707 15.7137 21.4108 15.2837C21.7509 14.8538 21.9365 14.3219 21.9375 13.7738V8.385C21.9365 7.83681 21.7509 7.30492 21.4108 6.875C21.0707 6.44508 20.5958 6.14215 20.0625 6.015V3.1875H20.5725C22.7881 3.19048 24.9121 4.07221 26.4784 5.63924C28.0448 7.20627 28.9255 9.33063 28.9275 11.5463V18.9375Z" fill="#7A6CB5"/>
<path id="Vector 1" d="M18.75 5.62523V3.37523C12.75 3.07523 10.75 8.50023 10.5 11.2502V18.3752H18.375V16.5002C17.175 16.2002 16.625 14.8752 16.5 14.2502V8.25023C16.2 6.75023 17.875 5.87523 18.75 5.62523Z" fill="#2A1A6C" stroke="#2A1A6C"/>
</g>
</svg>
