<svg width="1073" height="183" viewBox="0 0 1073 183" fill="none" xmlns="http://www.w3.org/2000/svg">
<path d="M1050.83 171.5C1050.83 177.391 1055.61 182.167 1061.5 182.167C1067.39 182.167 1072.17 177.391 1072.17 171.5C1072.17 165.609 1067.39 160.833 1061.5 160.833C1055.61 160.833 1050.83 165.609 1050.83 171.5ZM630.378 145.484L630.178 143.494L630.378 145.484ZM0.439111 3.69544L42.5188 30.026L44.6406 26.6352L2.56089 0.304561L0.439111 3.69544ZM137.724 48.114L153.368 45.2088L152.637 41.276L136.994 44.1812L137.724 48.114ZM302.637 133.182L318.847 142.749L320.88 139.304L304.67 129.737L302.637 133.182ZM431.358 167.495L630.578 147.474L630.178 143.494L430.958 163.515L431.358 167.495ZM719.55 146.522L1061.34 173.494L1061.66 169.506L719.865 142.534L719.55 146.522ZM630.578 147.474C660.148 144.503 689.924 144.184 719.55 146.522L719.865 142.534C690.001 140.178 659.985 140.499 630.178 143.494L630.578 147.474ZM318.847 142.749C352.76 162.763 392.176 171.432 431.358 167.495L430.958 163.515C392.623 167.367 354.06 158.885 320.88 139.304L318.847 142.749ZM264.117 95.0043C273.588 110.731 286.826 123.851 302.637 133.182L304.67 129.737C289.431 120.744 276.672 108.098 267.543 92.9406L264.117 95.0043ZM153.368 45.2088C197.055 37.0954 241.192 56.9403 264.117 95.0043L267.543 92.9406C243.758 53.4479 197.965 32.8581 152.637 41.276L153.368 45.2088ZM42.5188 30.026C70.8689 47.7655 104.844 54.2204 137.724 48.114L136.994 44.1812C105.098 50.1047 72.1413 43.8432 44.6406 26.6352L42.5188 30.026Z" fill="url(#paint0_linear_1118_32)"/>
<defs>
<linearGradient id="paint0_linear_1118_32" x1="1137.96" y1="9.89125" x2="-104.142" y2="214.61" gradientUnits="userSpaceOnUse">
<stop stop-color="#7A6CB5" stop-opacity="0.96"/>
<stop offset="0.979167" stop-color="#A376AF" stop-opacity="0"/>
</linearGradient>
</defs>
</svg>
