<svg width="1091" height="180" viewBox="0 0 1091 180" fill="none" xmlns="http://www.w3.org/2000/svg">
  <path d="M1069.33 76C1069.33 81.891 1074.11 86.6667 1080 86.6667C1085.89 86.6667 1090.67 81.891 1090.67 76C1090.67 70.109 1085.89 65.3333 1080 65.3333C1074.11 65.3333 1069.33 70.109 1069.33 76ZM340.454 112.455L341.468 114.179L340.454 112.455ZM302.109 135.025L303.124 136.749L302.109 135.025ZM303.124 136.749L341.468 114.179L339.439 110.731L301.095 133.302L303.124 136.749ZM428.823 76.3495L572.357 34.2463L571.231 30.408L427.697 72.5112L428.823 76.3495ZM643.702 20.2393L780.089 6.22522L779.68 2.24617L643.293 16.2603L643.702 20.2393ZM971.431 33.7583L1079.24 77.8512L1080.76 74.1488L972.945 30.056L971.431 33.7583ZM780.089 6.22522C845.163 -0.461277 910.882 8.99535 971.431 33.7583L972.945 30.056C911.788 5.04414 845.408 -4.50753 779.68 2.24617L780.089 6.22522ZM572.357 34.2463C595.661 27.4103 619.543 22.7217 643.702 20.2393L643.293 16.2603C618.891 18.7676 594.77 23.5033 571.231 30.408L572.357 34.2463ZM341.468 114.179C368.918 98.021 398.259 85.3151 428.823 76.3495L427.697 72.5112C396.817 81.5695 367.173 94.4067 339.439 110.731L341.468 114.179ZM0.0663568 143.769C95.4704 194.13 210.154 191.473 303.124 136.749L301.095 133.302C209.32 187.322 96.1111 189.945 1.93364 140.231L0.0663568 143.769Z" fill="url(#paint0_linear_1363_2224)"/>
  <defs>
    <linearGradient id="paint0_linear_1363_2224" x1="1539.46" y1="62.7894" x2="-80.4571" y2="487.395" gradientUnits="userSpaceOnUse">
      <stop stop-color="#1E88E5"/>
      <stop offset="0.979167" stop-color="#989EA4"/>
    </linearGradient>
  </defs>
</svg>