<svg width="1091" height="178" viewBox="0 0 1091 178" fill="none" xmlns="http://www.w3.org/2000/svg">
<path d="M1069.33 74C1069.33 79.891 1074.11 84.6667 1080 84.6667C1085.89 84.6667 1090.67 79.891 1090.67 74C1090.67 68.109 1085.89 63.3333 1080 63.3333C1074.11 63.3333 1069.33 68.109 1069.33 74ZM652.622 15.3122L652.417 13.3227L652.622 15.3122ZM340.454 110.455L341.468 112.179L340.454 110.455ZM302.109 133.025L303.124 134.749L302.109 133.025ZM303.124 134.749L341.468 112.179L339.439 108.731L301.095 131.302L303.124 134.749ZM428.823 74.3495L563.555 34.8281L562.429 30.9898L427.697 70.5112L428.823 74.3495ZM652.826 17.3018L755.185 6.78414L754.776 2.80509L652.417 13.3227L652.826 17.3018ZM994.602 41.2351L1079.24 75.8512L1080.76 72.1488L996.117 37.5328L994.602 41.2351ZM755.185 6.78414C836.61 -1.58238 918.841 10.2503 994.602 41.2351L996.117 37.5328C919.746 6.29908 836.855 -5.62863 754.776 2.80509L755.185 6.78414ZM563.555 34.8281C592.715 26.2745 622.597 20.4079 652.826 17.3018L652.417 13.3227C621.945 16.4538 591.823 22.3675 562.429 30.9898L563.555 34.8281ZM341.468 112.179C368.918 96.021 398.259 83.3151 428.823 74.3495L427.697 70.5112C396.817 79.5695 367.173 92.4067 339.439 108.731L341.468 112.179ZM0.0663568 141.769C95.4704 192.13 210.154 189.473 303.124 134.749L301.095 131.302C209.32 185.322 96.1111 187.945 1.93364 138.231L0.0663568 141.769Z" fill="url(#paint0_linear_1118_27)"/>
<defs>
<linearGradient id="paint0_linear_1118_27" x1="1158.03" y1="1.24554" x2="-117.659" y2="184.424" gradientUnits="userSpaceOnUse">
<stop stop-color="#7A6CB5" stop-opacity="0.96"/>
<stop offset="0.979167" stop-color="#A376AF" stop-opacity="0"/>
</linearGradient>
</defs>
</svg>
