<svg width="1177" height="434" viewBox="0 0 1177 434" fill="none" xmlns="http://www.w3.org/2000/svg">
  <path d="M383.833 11C383.833 16.891 388.609 21.6667 394.5 21.6667C400.391 21.6667 405.167 16.891 405.167 11C405.167 5.10896 400.391 0.333333 394.5 0.333333C388.609 0.333333 383.833 5.10896 383.833 11ZM961.958 315.503L961.595 313.536L961.958 315.503ZM1175.64 274.033L961.595 313.536L962.321 317.47L1176.36 277.967L1175.64 274.033ZM858.486 318.947L664.53 303.855L664.22 307.843L858.176 322.935L858.486 318.947ZM470.214 337.231L302.459 411.714L304.082 415.37L471.837 340.887L470.214 337.231ZM89.1411 387.683L84.4461 384.171L82.0502 387.374L86.7452 390.886L89.1411 387.683ZM194.39 23.1993L394.602 12.9974L394.398 9.00259L194.186 19.2045L194.39 23.1993ZM4 223.538C4 116.718 87.7086 28.6353 194.39 23.1993L194.186 19.2045C85.3778 24.7489 0 114.588 0 223.538H4ZM84.4461 384.171C33.8127 346.298 4 286.768 4 223.538H0C0 288.029 30.4071 348.746 82.0502 387.374L84.4461 384.171ZM302.459 411.714C232.243 442.89 150.662 433.7 89.1411 387.683L86.7452 390.886C149.425 437.77 232.543 447.133 304.082 415.37L302.459 411.714ZM664.53 303.855C597.992 298.678 531.211 310.148 470.214 337.231L471.837 340.887C532.227 314.073 598.344 302.717 664.22 307.843L664.53 303.855ZM961.595 313.536C927.606 319.809 892.945 321.628 858.486 318.947L858.176 322.935C892.981 325.643 927.99 323.806 962.321 317.47L961.595 313.536Z" fill="url(#paint0_linear_1363_2227)"/>
  <defs>
    <linearGradient id="paint0_linear_1363_2227" x1="1675.92" y1="147.525" x2="-169.616" y2="412.723" gradientUnits="userSpaceOnUse">
      <stop stop-color="#1E88E5"/>
      <stop offset="0.979167" stop-color="#989EA4"/>
    </linearGradient>
  </defs>
</svg>