<svg width="1006" height="209" viewBox="0 0 1006 209" fill="none" xmlns="http://www.w3.org/2000/svg">
<path d="M984.333 11C984.333 16.891 989.109 21.6667 995 21.6667C1000.89 21.6667 1005.67 16.891 1005.67 11C1005.67 5.10896 1000.89 0.333333 995 0.333333C989.109 0.333333 984.333 5.10896 984.333 11ZM555.037 86.3331L554.668 88.2988L555.037 86.3331ZM794.503 72.7623L793.914 70.8509L794.503 72.7623ZM273.189 75.0271L272.899 73.0482L273.189 75.0271ZM2.86556 208.461L5.60623 205.9L2.87511 202.978L0.134443 205.539L2.86556 208.461ZM273.479 77.006L315.371 70.8719L314.791 66.9141L272.899 73.0482L273.479 77.006ZM479.421 74.1703L554.668 88.2988L555.406 84.3675L480.159 70.239L479.421 74.1703ZM795.092 74.6737L995.589 12.9114L994.411 9.08863L793.914 70.8509L795.092 74.6737ZM554.668 88.2988C634.728 103.331 717.243 98.6546 795.092 74.6737L793.914 70.8509C716.686 94.6408 634.828 99.2798 555.406 84.3675L554.668 88.2988ZM315.371 70.8719C369.86 62.8931 425.296 64.0077 479.421 74.1703L480.159 70.239C425.6 59.9948 369.719 58.8712 314.791 66.9141L315.371 70.8719ZM5.60623 205.9C79.6922 136.666 173.148 91.6972 273.479 77.006L272.899 73.0482C171.762 87.8574 77.5562 133.187 2.87511 202.978L5.60623 205.9Z" fill="url(#paint0_linear_1118_31)"/>
<defs>
<linearGradient id="paint0_linear_1118_31" x1="1066.66" y1="20.125" x2="-108.172" y2="177.072" gradientUnits="userSpaceOnUse">
<stop stop-color="#7A6CB5" stop-opacity="0.96"/>
<stop offset="0.979167" stop-color="#A376AF" stop-opacity="0"/>
</linearGradient>
</defs>
</svg>
