<svg width="505" height="210" viewBox="0 0 505 210" fill="none" xmlns="http://www.w3.org/2000/svg">
<path d="M1.15904 206.016C0.339528 206.757 0.275554 208.021 1.01615 208.841C1.75674 209.66 3.02145 209.724 3.84096 208.984L1.15904 206.016ZM294.5 147.5L295.239 145.642L295.235 145.64L294.5 147.5ZM476.333 11C476.333 16.891 481.109 21.6667 487 21.6667C492.891 21.6667 497.667 16.891 497.667 11C497.667 5.10896 492.891 0.333333 487 0.333333C481.109 0.333333 476.333 5.10896 476.333 11ZM499.086 57.6733L501.022 57.1719L499.086 57.6733ZM3.84096 208.984L92.7916 128.599L90.1097 125.631L1.15904 206.016L3.84096 208.984ZM194.494 110.158L293.765 149.36L295.235 145.64L195.964 106.437L194.494 110.158ZM293.761 149.358L364.59 177.523L366.068 173.806L295.239 145.642L293.761 149.358ZM501.022 57.1719L488.936 10.4986L485.064 11.5014L497.15 58.1746L501.022 57.1719ZM364.59 177.523C442.187 208.378 521.955 138.012 501.022 57.1719L497.15 58.1746C517.262 135.844 440.622 203.451 366.068 173.806L364.59 177.523ZM92.7916 128.599C120.432 103.62 159.844 96.474 194.494 110.158L195.964 106.437C159.899 92.1951 118.878 99.6332 90.1097 125.631L92.7916 128.599Z" fill="url(#paint0_linear_1118_177)"/>
<defs>
<linearGradient id="paint0_linear_1118_177" x1="781" y1="82.4988" x2="-81.0004" y2="192.499" gradientUnits="userSpaceOnUse">
<stop stop-color="#7A6CB5" stop-opacity="0.96"/>
<stop offset="0.979167" stop-color="#A376AF" stop-opacity="0"/>
</linearGradient>
</defs>
</svg>
