<svg width="388" height="362" viewBox="0 0 388 362" fill="none" xmlns="http://www.w3.org/2000/svg">
<path d="M386.886 69.6931C388.374 63.9929 384.959 58.1662 379.258 56.6789C373.558 55.1916 367.732 58.6068 366.244 64.307C364.757 70.0072 368.172 75.8338 373.872 77.3211C379.573 78.8084 385.399 75.3933 386.886 69.6931ZM215.75 248.29L217.749 248.22L215.75 248.29ZM210.166 88.4503L212.165 88.3805L210.166 88.4503ZM332.801 7.76302L314.858 3.08104L313.848 6.95145L331.791 11.6334L332.801 7.76302ZM208.168 88.5202L213.751 248.36L217.749 248.22L212.165 88.3805L208.168 88.5202ZM110.147 356.613L60.6395 357.056L60.6754 361.056L110.183 360.612L110.147 356.613ZM60.6395 357.056C29.5124 357.335 4.17616 332.091 4.34208 300.963L0.342146 300.941C0.164331 334.301 27.3168 361.355 60.6754 361.056L60.6395 357.056ZM213.751 248.36C215.805 307.159 168.979 356.086 110.147 356.613L110.183 360.612C171.265 360.065 219.881 309.268 217.749 248.22L213.751 248.36ZM314.858 3.08104C259.663 -11.3207 206.176 31.5123 208.168 88.5202L212.165 88.3805C210.267 34.0483 261.244 -6.77437 313.848 6.95145L314.858 3.08104ZM331.791 11.6334C356.986 18.2073 374.565 40.9621 374.565 67L378.565 67C378.565 39.1419 359.757 14.7965 332.801 7.76302L331.791 11.6334Z" fill="url(#paint0_linear_1480_414)"/>
<defs>
<linearGradient id="paint0_linear_1480_414" x1="173.73" y1="496.626" x2="520.25" y2="166.854" gradientUnits="userSpaceOnUse">
<stop offset="0.0115734" stop-color="#A376AF" stop-opacity="0"/>
<stop offset="0.90625" stop-color="#7A6CB5" stop-opacity="0.96"/>
</linearGradient>
</defs>
</svg>
