<svg width="249" height="191" viewBox="0 0 249 191" fill="none" xmlns="http://www.w3.org/2000/svg">
<path id="Vector 33" d="M139.333 180C139.333 185.891 144.109 190.667 150 190.667C155.891 190.667 160.667 185.891 160.667 180C160.667 174.109 155.891 169.333 150 169.333C144.109 169.333 139.333 174.109 139.333 180ZM32.1406 46.9465L30.9127 45.3678L32.1406 46.9465ZM247.826 0.00757825L154.147 8.18588L154.495 12.1707L248.174 3.99242L247.826 0.00757825ZM52.8704 164.313L149.641 181.968L150.359 178.032L53.5883 160.378L52.8704 164.313ZM90.5101 21.0629L55.478 32.3707L56.7067 36.1773L91.7388 24.8695L90.5101 21.0629ZM30.9127 45.3678L24.8746 50.0643L27.3304 53.2217L33.3685 48.5252L30.9127 45.3678ZM55.478 32.3707C46.5946 35.2381 38.281 39.6367 30.9127 45.3678L33.3685 48.5252C40.3687 43.0804 48.2671 38.9015 56.7067 36.1773L55.478 32.3707ZM0 100.925C0 132.051 22.25 158.727 52.8704 164.313L53.5883 160.378C24.8687 155.139 4 130.119 4 100.925H0ZM4 100.925C4 82.276 12.6099 64.6714 27.3304 53.2217L24.8746 50.0643C9.17976 62.2719 0 81.0417 0 100.925H4ZM154.147 8.18588C132.519 10.0741 111.171 14.3937 90.5101 21.0629L91.7388 24.8695C112.114 18.2926 133.166 14.0328 154.495 12.1707L154.147 8.18588Z" fill="url(#paint0_linear_1433_317)"/>
<defs>
<linearGradient id="paint0_linear_1433_317" x1="265.789" y1="8.10974" x2="-30.3231" y2="22.7791" gradientUnits="userSpaceOnUse">
<stop stop-color="#7A6CB5" stop-opacity="0.96"/>
<stop offset="0.979167" stop-color="#A376AF" stop-opacity="0"/>
</linearGradient>
</defs>
</svg>
