<svg width="155" height="576" viewBox="0 0 155 576" fill="none" xmlns="http://www.w3.org/2000/svg">
<path d="M0.833333 564.5C0.833333 570.391 5.60896 575.167 11.5 575.167C17.391 575.167 22.1667 570.391 22.1667 564.5C22.1667 558.609 17.391 553.833 11.5 553.833C5.60896 553.833 0.833333 558.609 0.833333 564.5ZM47.5875 517.862L46.0057 516.638L47.5875 517.862ZM113.556 0.968991L136.262 95.0982L140.15 94.1602L117.444 0.0310091L113.556 0.968991ZM46.0057 516.638L9.91824 563.276L13.0818 565.724L49.1693 519.086L46.0057 516.638ZM136.262 95.0982C171.704 242.027 138.501 397.102 46.0057 516.638L49.1693 519.086C142.408 398.59 175.877 242.27 140.15 94.1602L136.262 95.0982Z" fill="url(#paint0_linear_1458_338)"/>
<defs>
<linearGradient id="paint0_linear_1458_338" x1="80.9892" y1="-139.413" x2="-288.882" y2="61.3209" gradientUnits="userSpaceOnUse">
<stop offset="0.0115734" stop-color="#A376AF" stop-opacity="0"/>
<stop offset="0.90625" stop-color="#7A6CB5" stop-opacity="0.96"/>
</linearGradient>
</defs>
</svg>
