<svg width="69" height="153" viewBox="0 0 69 153" fill="none" xmlns="http://www.w3.org/2000/svg">
<path id="Vector 16" d="M47.3333 11.5C47.3333 17.391 52.109 22.1667 58 22.1667C63.891 22.1667 68.6667 17.391 68.6667 11.5C68.6667 5.60896 63.891 0.833333 58 0.833333C52.109 0.833333 47.3333 5.60896 47.3333 11.5ZM2.36325 152.304L3.98175 151.53L2.25525 147.921L0.636746 148.696L2.36325 152.304ZM3.98175 151.53C56.5009 126.4 80.8431 65.0909 59.8657 10.7794L56.1343 12.2206C76.3592 64.5836 52.8903 123.693 2.25525 147.921L3.98175 151.53Z" fill="url(#paint0_linear_1118_44)"/>
<defs>
<linearGradient id="paint0_linear_1118_44" x1="115.116" y1="-73.1216" x2="-12.4166" y2="-71.603" gradientUnits="userSpaceOnUse">
<stop stop-color="#A376AF" stop-opacity="0"/>
<stop offset="1" stop-color="#7A6CB5" stop-opacity="0.96"/>
</linearGradient>
</defs>
</svg>
