<svg width="1177" height="434" viewBox="0 0 1177 434" fill="none" xmlns="http://www.w3.org/2000/svg">
<path d="M383.833 11C383.833 16.891 388.609 21.6667 394.5 21.6667C400.391 21.6667 405.167 16.891 405.167 11C405.167 5.10896 400.391 0.333333 394.5 0.333333C388.609 0.333333 383.833 5.10896 383.833 11ZM974.822 313.129L974.459 311.162L974.822 313.129ZM845.289 319.926L845.133 321.92L845.289 319.926ZM1175.64 274.033L974.459 311.162L975.185 315.096L1176.36 277.967L1175.64 274.033ZM845.444 317.932L686.997 305.603L686.687 309.591L845.133 321.92L845.444 317.932ZM449.618 346.375L302.459 411.714L304.082 415.37L451.241 350.031L449.618 346.375ZM89.1411 387.683L84.4461 384.171L82.0502 387.374L86.7452 390.886L89.1411 387.683ZM194.39 23.1993L394.602 12.9974L394.398 9.00259L194.186 19.2045L194.39 23.1993ZM4 223.538C4 116.718 87.7086 28.6353 194.39 23.1993L194.186 19.2045C85.3778 24.7489 0 114.588 0 223.538H4ZM84.4461 384.171C33.8127 346.298 4 286.768 4 223.538H0C0 288.029 30.4071 348.746 82.0502 387.374L84.4461 384.171ZM302.459 411.714C232.243 442.89 150.662 433.7 89.1411 387.683L86.7452 390.886C149.425 437.77 232.543 447.133 304.082 415.37L302.459 411.714ZM686.997 305.603C605.713 299.279 524.133 313.291 449.618 346.375L451.241 350.031C525.149 317.216 606.065 303.318 686.687 309.591L686.997 305.603ZM974.459 311.162C931.93 319.011 888.56 321.287 845.444 317.932L845.133 321.92C888.596 325.302 932.315 323.008 975.185 315.096L974.459 311.162Z" fill="url(#paint0_linear_1118_30)"/>
<defs>
<linearGradient id="paint0_linear_1118_30" x1="1260.9" y1="33.6071" x2="-149.965" y2="123.754" gradientUnits="userSpaceOnUse">
<stop stop-color="#7A6CB5" stop-opacity="0.96"/>
<stop offset="0.979167" stop-color="#A376AF" stop-opacity="0"/>
</linearGradient>
</defs>
</svg>
