<svg width="1375" height="495" viewBox="0 0 1375 495" fill="none" xmlns="http://www.w3.org/2000/svg">
<path d="M813 148L812.24 149.85L812.357 149.898L812.478 149.931L813 148ZM1129.5 233.5L1128.98 235.431L1129.08 235.458L1129.18 235.475L1129.5 233.5ZM386.333 484C386.333 489.891 391.109 494.667 397 494.667C402.891 494.667 407.667 489.891 407.667 484C407.667 478.109 402.891 473.333 397 473.333C391.109 473.333 386.333 478.109 386.333 484ZM1257.08 479.963L1257.01 481.962L1257.08 479.963ZM1278.69 257.395L1278.38 259.37L1278.69 257.395ZM889.795 467.174L889.725 469.173L889.795 467.174ZM0 4H358.826V0H0V4ZM548.016 41.3361L812.24 149.85L813.76 146.15L549.536 37.636L548.016 41.3361ZM812.478 149.931L1128.98 235.431L1130.02 231.569L813.522 146.069L812.478 149.931ZM1129.18 235.475L1278.38 259.37L1279.01 255.421L1129.82 231.525L1129.18 235.475ZM1257.15 477.965L889.864 465.175L889.725 469.173L1257.01 481.962L1257.15 477.965ZM753.028 416.417L728.689 397.923L726.269 401.108L750.608 419.602L753.028 416.417ZM728.689 397.923C616.004 312.297 452.941 353.983 395.174 483.184L398.826 484.816C455.541 357.967 615.635 317.04 726.269 401.108L728.689 397.923ZM1371 368.008C1371 430.273 1319.38 480.132 1257.15 477.965L1257.01 481.962C1321.5 484.208 1375 432.537 1375 368.008H1371ZM1278.38 259.37C1331.74 267.918 1371 313.961 1371 368.008H1375C1375 311.996 1334.32 264.279 1279.01 255.421L1278.38 259.37ZM889.864 465.175C840.31 463.45 792.508 446.417 753.028 416.417L750.608 419.602C790.746 450.101 839.345 467.419 889.725 469.173L889.864 465.175ZM358.826 4C423.72 4 487.988 16.6831 548.016 41.3361L549.536 37.636C489.025 12.785 424.241 0 358.826 0V4Z" fill="url(#paint0_linear_1283_8)"/>
<defs>
<linearGradient id="paint0_linear_1283_8" x1="1677.37" y1="-291.436" x2="-200.896" y2="-196.211" gradientUnits="userSpaceOnUse">
<stop offset="0.0104167" stop-color="#1E88E5"/>
<stop offset="1" stop-color="white"/> 
</linearGradient>
</defs>
</svg>
