<svg width="498" height="210" viewBox="0 0 498 210" fill="none" xmlns="http://www.w3.org/2000/svg">
  <path d="M1.15904 206.016C0.339528 206.757 0.275554 208.021 1.01615 208.841C1.75674 209.66 3.02145 209.724 3.84096 208.984L1.15904 206.016ZM476.333 11C476.333 16.891 481.109 21.6667 487 21.6667C492.891 21.6667 497.667 16.891 497.667 11C497.667 5.10896 492.891 0.333333 487 0.333333C481.109 0.333333 476.333 5.10896 476.333 11ZM294.5 147.5L295.239 145.642L295.235 145.64L294.5 147.5ZM3.84096 208.984L13.6048 200.16L10.9229 197.193L1.15904 206.016L3.84096 208.984ZM293.761 149.358L319.789 159.708L321.267 155.991L295.239 145.642L293.761 149.358ZM319.789 159.708C415.993 197.962 514.889 110.723 488.936 10.4986L485.064 11.5014C510.196 108.555 414.428 193.035 321.267 155.991L319.789 159.708ZM13.6048 200.16C89.7447 131.352 198.314 111.666 293.765 149.36L295.235 145.64C198.369 107.387 88.191 127.365 10.9229 197.193L13.6048 200.16Z" fill="url(#paint0_linear_1363_2223)"/>
  <defs>
    <linearGradient id="paint0_linear_1363_2223" x1="781" y1="82.4988" x2="-81.0004" y2="192.499" gradientUnits="userSpaceOnUse">
      <stop stop-color="#1E88E5"/>
      <stop offset="0.979167" stop-color="#989EA4"/>
    </linearGradient>
  </defs>
</svg>