<svg width="54" height="117" viewBox="0 0 54 117" fill="none" xmlns="http://www.w3.org/2000/svg">
  <path d="M0.333333 11C0.333333 16.891 5.10896 21.6667 11 21.6667C16.891 21.6667 21.6667 16.891 21.6667 11C21.6667 5.10896 16.891 0.333333 11 0.333333C5.10896 0.333333 0.333333 5.10896 0.333333 11ZM54 117V93.081H50V117H54ZM22.9999 19.8484L12.3922 9.56407L9.60785 12.4359L20.2156 22.7203L22.9999 19.8484ZM54 93.081C54 65.4814 42.8155 39.0599 22.9999 19.8484L20.2156 22.7203C39.2541 41.1783 50 66.5637 50 93.081H54Z" fill="url(#paint0_linear_1363_2237)"/>
  <defs>
    <linearGradient id="paint0_linear_1363_2237" x1="69.4588" y1="42.9111" x2="3.70606" y2="44.3228" gradientUnits="userSpaceOnUse">
      <stop stop-color="white"/>
      <stop offset="1" stop-color="#1E88E5"/>
    </linearGradient>
  </defs>
</svg>