<svg width="86" height="139" viewBox="0 0 86 139" fill="none" xmlns="http://www.w3.org/2000/svg">
<path id="Vector 19" d="M0.333333 11C0.333333 16.891 5.10896 21.6667 11 21.6667C16.891 21.6667 21.6667 16.891 21.6667 11C21.6667 5.10896 16.891 0.333333 11 0.333333C5.10896 0.333333 0.333333 5.10896 0.333333 11ZM79.2323 61.914L77.4236 62.7676L79.2323 61.914ZM35.0281 138.719L62.2315 122.553L60.188 119.115L32.9846 135.281L35.0281 138.719ZM62.9697 40.8156L12.0526 9.29941L9.94739 12.7006L60.8644 44.2168L62.9697 40.8156ZM81.041 61.0605C77.0995 52.7081 70.8227 45.6764 62.9697 40.8156L60.8644 44.2168C68.0603 48.6708 73.8119 55.1141 77.4236 62.7676L81.041 61.0605ZM62.2315 122.553C83.4121 109.966 91.5559 83.3425 81.041 61.0605L77.4236 62.7676C87.0586 83.185 79.5963 107.581 60.188 119.115L62.2315 122.553Z" fill="url(#paint0_linear_1118_46)"/>
<defs>
<linearGradient id="paint0_linear_1118_46" x1="116.065" y1="-65.7074" x2="-1.86843" y2="-64.2747" gradientUnits="userSpaceOnUse">
<stop stop-color="#A376AF" stop-opacity="0"/>
<stop offset="0.916667" stop-color="#7A6CB5" stop-opacity="0.96"/>
</linearGradient>
</defs>
</svg>
