<svg width="358" height="362" viewBox="0 0 388 362" fill="none" xmlns="http://www.w3.org/2000/svg">
  <path d="M386.886 69.6929C388.374 63.9927 384.959 58.1661 379.258 56.6787C373.558 55.1914 367.732 58.6066 366.244 64.3068C364.757 70.007 368.172 75.8336 373.872 77.3209C379.573 78.8083 385.399 75.3931 386.886 69.6929ZM332.801 7.76284L314.858 3.08085L313.848 6.95127L331.791 11.6333L332.801 7.76284ZM208.168 88.5199L213.751 248.36L217.749 248.22L212.165 88.3803L208.168 88.5199ZM110.147 356.612L60.6395 357.056L60.6754 361.056L110.183 360.612L110.147 356.612ZM60.6395 357.056C29.5124 357.335 4.17616 332.09 4.34208 300.962L0.342146 300.941C0.164331 334.301 27.3168 361.355 60.6754 361.056L60.6395 357.056ZM213.751 248.36C215.805 307.159 168.979 356.085 110.147 356.612L110.183 360.612C171.265 360.065 219.881 309.268 217.749 248.22L213.751 248.36ZM314.858 3.08085C259.663 -11.3209 206.176 31.5121 208.168 88.5199L212.165 88.3803C210.267 34.0481 261.244 -6.77456 313.848 6.95127L314.858 3.08085ZM331.791 11.6333C356.986 18.2072 374.565 40.9619 374.565 66.9999L378.565 66.9998C378.565 39.1417 359.757 14.7963 332.801 7.76284L331.791 11.6333Z" fill="url(#paint0_linear_1480_414)"/>
  <defs>
    <linearGradient id="paint0_linear_1480_414" x1="-104.789" y1="200.435" x2="369.805" y2="304.269" gradientUnits="userSpaceOnUse">
      <stop stop-color="white" stop-opacity="0"/>
      <stop offset="1" stop-color="#1E88E5"/>
    </linearGradient>
  </defs>
</svg>