<svg width="163" height="576" viewBox="0 0 163 576" fill="none" xmlns="http://www.w3.org/2000/svg">
  <path d="M0.833333 564.5C0.833333 570.391 5.60896 575.167 11.5 575.167C17.391 575.167 22.1667 570.391 22.1667 564.5C22.1667 558.609 17.391 553.833 11.5 553.833C5.60896 553.833 0.833333 558.609 0.833333 564.5ZM113.556 0.968991L147.521 141.772L151.409 140.834L117.444 0.0310091L113.556 0.968991ZM75.3882 478.666L9.91824 563.276L13.0818 565.724L78.5518 481.114L75.3882 478.666ZM147.521 141.772C175.846 259.198 149.31 383.133 75.3882 478.666L78.5518 481.114C153.217 384.62 180.019 259.44 151.409 140.834L147.521 141.772Z" fill="url(#paint0_linear_1458_338)"/>
  <defs>
    <linearGradient id="paint0_linear_1458_338" x1="272.426" y1="170.291" x2="-21.0959" y2="175.577" gradientUnits="userSpaceOnUse">
      <stop stop-color="white"/>
      <stop offset="1" stop-color="#1E88E5"/>
    </linearGradient>
  </defs>
</svg>