<svg width="493" height="1033" viewBox="0 0 493 1033" fill="none" xmlns="http://www.w3.org/2000/svg">
<path d="M0.833333 1021.5C0.833333 1027.39 5.60896 1032.17 11.5 1032.17C17.391 1032.17 22.1667 1027.39 22.1667 1021.5C22.1667 1015.61 17.391 1010.83 11.5 1010.83C5.60896 1010.83 0.833333 1015.61 0.833333 1021.5ZM423.04 496.705L421.33 495.668L423.04 496.705ZM488.5 201.043V248.938H492.5V201.043H488.5ZM421.33 495.668C401.851 527.806 384.256 555.641 375.433 566.757L378.567 569.243C387.581 557.886 405.319 529.803 424.751 497.742L421.33 495.668ZM375.433 566.757C372.479 570.479 368.47 577.475 363.702 586.835C358.908 596.246 353.275 608.193 347.076 621.931C334.675 649.409 319.98 684.115 305.153 720.15L308.852 721.672C323.672 685.654 338.348 650.995 350.721 623.576C356.909 609.866 362.513 597.982 367.266 588.65C372.045 579.269 375.893 572.612 378.567 569.243L375.433 566.757ZM101.657 963.159L10.4449 1019.8L12.5551 1023.2L103.767 966.558L101.657 963.159ZM305.153 720.15C263.944 820.299 193.618 906.053 101.657 963.159L103.767 966.558C196.48 908.984 267.341 822.555 308.852 721.672L305.153 720.15ZM488.5 248.938C488.5 335.791 466.32 421.44 421.33 495.668L424.751 497.742C470.147 422.842 492.5 336.466 492.5 248.938H488.5ZM441.709 1.89064C472.484 63.7677 488.5 131.935 488.5 201.043H492.5C492.5 131.317 476.341 62.5399 445.291 0.109365L441.709 1.89064Z" fill="url(#paint0_linear_1458_344)"/>
<defs>
<linearGradient id="paint0_linear_1458_344" x1="193.387" y1="-252.159" x2="-581.981" y2="356.578" gradientUnits="userSpaceOnUse">
<stop offset="0.0115734" stop-color="#A376AF" stop-opacity="0"/>
<stop offset="0.90625" stop-color="#7A6CB5" stop-opacity="0.96"/>
</linearGradient>
</defs>
</svg>
