<svg width="1006" height="209" viewBox="0 0 1006 209" fill="none" xmlns="http://www.w3.org/2000/svg">
  <path d="M984.333 11C984.333 16.891 989.109 21.6667 995 21.6667C1000.89 21.6667 1005.67 16.891 1005.67 11C1005.67 5.10896 1000.89 0.333333 995 0.333333C989.109 0.333333 984.333 5.10896 984.333 11ZM579.319 90.8923L578.95 92.858L579.319 90.8923ZM2.86556 208.461L28.4541 184.548L25.723 181.626L0.134443 205.539L2.86556 208.461ZM242.537 81.5367L331.897 68.452L331.317 64.4942L241.957 77.5789L242.537 81.5367ZM463.006 71.0881L578.95 92.858L579.688 88.9267L463.744 67.1568L463.006 71.0881ZM771.48 81.947L995.589 12.9114L994.411 9.08863L770.303 78.1243L771.48 81.947ZM578.95 92.858C643.062 104.896 709.139 101.151 771.48 81.947L770.303 78.1243C708.582 97.1371 643.162 100.845 579.688 88.9267L578.95 92.858ZM331.897 68.452C375.445 62.0754 419.749 62.9662 463.006 71.0881L463.744 67.1568C420.052 58.9532 375.303 58.0535 331.317 64.4942L331.897 68.452ZM28.4541 184.548C87.6634 129.217 162.353 93.2778 242.537 81.5367L241.957 77.5789C160.967 89.438 85.5274 125.738 25.723 181.626L28.4541 184.548Z" fill="url(#paint0_linear_1363_2228)"/>
  <defs>
    <linearGradient id="paint0_linear_1363_2228" x1="1418.06" y1="70.0054" x2="-59.0434" y2="485.608" gradientUnits="userSpaceOnUse">
      <stop stop-color="#1E88E5"/>
      <stop offset="0.979167" stop-color="#989EA4"/>
    </linearGradient>
  </defs>
</svg>