<svg width="976" height="410" viewBox="0 0 976 410" fill="none" xmlns="http://www.w3.org/2000/svg">
  <path d="M442 129.5V131.5H442.024L442.048 131.499L442 129.5ZM906.333 398.5C906.333 404.391 911.109 409.167 917 409.167C922.891 409.167 927.667 404.391 927.667 398.5C927.667 392.609 922.891 387.833 917 387.833C911.109 387.833 906.333 392.609 906.333 398.5ZM881.618 127.756L880.958 129.644L881.618 127.756ZM0.854583 3.63952L80.1579 59.0432L82.4487 55.7642L3.14542 0.360482L0.854583 3.63952ZM310.387 131.5H442V127.5H310.387V131.5ZM442.048 131.499L833.036 122.101L832.94 118.102L441.952 127.501L442.048 131.499ZM955.903 320.8L915.233 397.564L918.767 399.436L959.438 322.673L955.903 320.8ZM880.958 129.644C959.185 156.99 994.7 247.574 955.903 320.8L959.438 322.673C999.381 247.283 962.817 154.022 882.278 125.868L880.958 129.644ZM833.036 122.101C849.334 121.709 865.568 124.264 880.958 129.644L882.278 125.868C866.434 120.329 849.719 117.698 832.94 118.102L833.036 122.101ZM80.1579 59.0432C147.668 106.207 228.034 131.5 310.387 131.5V127.5C228.853 127.5 149.287 102.459 82.4487 55.7642L80.1579 59.0432Z" fill="url(#paint0_linear_1363_2226)"/>
  <defs>
    <linearGradient id="paint0_linear_1363_2226" x1="1471.31" y1="121.365" x2="-148.379" y2="355.03" gradientUnits="userSpaceOnUse">
      <stop stop-color="#1E88E5"/>
      <stop offset="0.979167" stop-color="#989EA4"/>
    </linearGradient>
  </defs>
</svg>