<svg width="115" height="280" viewBox="0 0 115 280" fill="none" xmlns="http://www.w3.org/2000/svg">
<path d="M114.579 269C114.579 274.891 109.804 279.667 103.913 279.667C98.0215 279.667 93.2458 274.891 93.2458 269C93.2458 263.109 98.0215 258.333 103.913 258.333C109.804 258.333 114.579 263.109 114.579 269ZM12.1345 187.597L13.9962 186.866L12.1345 187.597ZM3.66727 150.645L5.66143 150.492L3.66727 150.645ZM108.918 3.77704L68.115 24.8481L66.2797 21.294L107.082 0.222965L108.918 3.77704ZM78.8601 255.358L104.743 267.181L103.082 270.819L77.1982 258.997L78.8601 255.358ZM4.73979 138.461L5.66143 150.492L1.67312 150.798L0.75148 138.767L4.73979 138.461ZM32.1537 53.5317C12.2255 77.1477 2.37953 107.651 4.73979 138.461L0.75148 138.767C-1.68896 106.91 8.49149 75.3703 29.0966 50.952L32.1537 53.5317ZM13.9962 186.866C25.9201 217.242 49.1767 241.8 78.8601 255.358L77.1982 258.997C46.5714 245.008 22.5757 219.669 10.2728 188.327L13.9962 186.866ZM10.2728 188.327C5.55728 176.314 2.65887 163.665 1.67312 150.798L5.66143 150.492C6.61681 162.964 9.42595 175.223 13.9962 186.866L10.2728 188.327ZM68.115 24.8481C54.3587 31.952 42.1384 41.6992 32.1537 53.5317L29.0966 50.952C39.4206 38.7176 52.056 28.6393 66.2797 21.294L68.115 24.8481Z" fill="url(#paint0_linear_1433_332)"/>
<defs>
<linearGradient id="paint0_linear_1433_332" x1="118.9" y1="-92.1219" x2="323.24" y2="140.904" gradientUnits="userSpaceOnUse">
<stop offset="0.0115734" stop-color="#A376AF" stop-opacity="0"/>
<stop offset="0.90625" stop-color="#7A6CB5" stop-opacity="0.96"/>
</linearGradient>
</defs>
</svg>
