<svg width="146" height="136" viewBox="0 0 146 136" fill="none" xmlns="http://www.w3.org/2000/svg">
  <path d="M77.3659 125C77.3659 130.891 82.1415 135.667 88.0325 135.667C93.9236 135.667 98.6992 130.891 98.6992 125C98.6992 119.109 93.9236 114.333 88.0325 114.333C82.1415 114.333 77.3659 119.109 77.3659 125ZM144.794 0.0106837L91.4889 5.54255L91.9017 9.52118L145.206 3.98932L144.794 0.0106837ZM37.7467 116.141L87.6086 126.955L88.4564 123.045L38.5944 112.232L37.7467 116.141ZM52.3238 14.9152L34.3708 21.8039L35.8037 25.5384L53.7568 18.6497L52.3238 14.9152ZM17.1979 32.4824L15.3807 34.1626L18.0963 37.0995L19.9134 35.4194L17.1979 32.4824ZM34.3708 21.8039C28.0203 24.2406 22.1922 27.8647 17.1979 32.4824L19.9134 35.4194C24.5347 31.1465 29.9276 27.7931 35.8037 25.5384L34.3708 21.8039ZM0 69.3314C0 91.8729 15.7172 111.364 37.7467 116.141L38.5944 112.232C18.4047 107.854 4 89.9904 4 69.3314H0ZM4 69.3314C4 57.0921 9.10967 45.4086 18.0963 37.0995L15.3807 34.1626C5.57526 43.2288 0 55.9769 0 69.3314H4ZM91.4889 5.54255C78.079 6.9342 64.9108 10.0855 52.3238 14.9152L53.7568 18.6497C66.016 13.9458 78.8412 10.8766 91.9017 9.52118L91.4889 5.54255Z" fill="url(#paint0_linear_1433_317)"/>
  <defs>
    <linearGradient id="paint0_linear_1433_317" x1="205.893" y1="39.0289" x2="-22.594" y2="53.774" gradientUnits="userSpaceOnUse">
      <stop stop-color="white"/>
      <stop offset="1" stop-color="#1E88E5"/>
    </linearGradient>
  </defs>
</svg>