<svg width="84" height="150" viewBox="0 0 84 150" fill="none" xmlns="http://www.w3.org/2000/svg">
<path id="Vector 18" d="M61.8333 11C61.8333 16.891 66.609 21.6667 72.5 21.6667C78.391 21.6667 83.1667 16.891 83.1667 11C83.1667 5.10896 78.391 0.333333 72.5 0.333333C66.609 0.333333 61.8333 5.10896 61.8333 11ZM19.8882 145.068L18.4066 146.411L19.8882 145.068ZM9.41419 69.7936L7.62206 68.9057L9.41419 69.7936ZM24.4817 147.157L21.3699 143.725L18.4066 146.411L21.5183 149.843L24.4817 147.157ZM28.809 48.7527L73.7544 12.5577L71.2456 9.44231L26.3002 45.6373L28.809 48.7527ZM11.2063 70.6814C15.4164 62.1832 21.4225 54.7011 28.809 48.7527L26.3002 45.6373C18.4624 51.9491 12.0894 59.8884 7.62206 68.9057L11.2063 70.6814ZM21.3699 143.725C3.28819 123.781 -0.743976 94.8033 11.2063 70.6814L7.62206 68.9057C-5.05832 94.5013 -0.779814 125.25 18.4066 146.411L21.3699 143.725Z" fill="url(#paint0_linear_1118_45)"/>
<defs>
<linearGradient id="paint0_linear_1118_45" x1="91.0104" y1="-72.7084" x2="-23.4979" y2="-71.4708" gradientUnits="userSpaceOnUse">
<stop offset="0.0104167" stop-color="#1E88E5"/>
<stop offset="1" stop-color="white"/> 
</linearGradient>
</defs>
</svg>
