<svg width="976" height="410" viewBox="0 0 976 410" fill="none" xmlns="http://www.w3.org/2000/svg">
<path d="M442 129.5V131.5H442.024L442.048 131.499L442 129.5ZM906.333 398.5C906.333 404.391 911.109 409.167 917 409.167C922.891 409.167 927.667 404.391 927.667 398.5C927.667 392.609 922.891 387.833 917 387.833C911.109 387.833 906.333 392.609 906.333 398.5ZM881.618 127.756L880.958 129.644L881.618 127.756ZM0.854583 3.63952L54.3587 41.0191L56.6496 37.7401L3.14542 0.360482L0.854583 3.63952ZM341.858 131.5H442V127.5H341.858V131.5ZM442.048 131.499L833.036 122.101L832.94 118.102L441.952 127.501L442.048 131.499ZM955.903 320.8L915.233 397.564L918.767 399.436L959.438 322.673L955.903 320.8ZM880.958 129.644C959.185 156.99 994.7 247.574 955.903 320.8L959.438 322.673C999.381 247.283 962.817 154.022 882.278 125.868L880.958 129.644ZM833.036 122.101C849.334 121.709 865.568 124.264 880.958 129.644L882.278 125.868C866.434 120.329 849.719 117.698 832.94 118.102L833.036 122.101ZM54.3587 41.0191C138.662 99.9158 239.019 131.5 341.858 131.5V127.5C239.839 127.5 140.281 96.1674 56.6496 37.7401L54.3587 41.0191Z" fill="url(#paint0_linear_1118_29)"/>
<defs>
<linearGradient id="paint0_linear_1118_29" x1="1107.02" y1="21.7656" x2="-131.351" y2="101.204" gradientUnits="userSpaceOnUse">
<stop stop-color="#7A6CB5" stop-opacity="0.96"/>
<stop offset="0.979167" stop-color="#A376AF" stop-opacity="0"/>
</linearGradient>
</defs>
</svg>
