<svg width="396" height="313" viewBox="0 0 396 313" fill="none" xmlns="http://www.w3.org/2000/svg">
  <path d="M225.333 301.5C225.333 307.391 230.109 312.167 236 312.167C241.891 312.167 246.667 307.391 246.667 301.5C246.667 295.609 241.891 290.833 236 290.833C230.109 290.833 225.333 295.609 225.333 301.5ZM241.619 115.647L292.871 109.559L292.399 105.586L241.147 111.675L241.619 115.647ZM319.438 283.923L235.634 299.534L236.366 303.466L320.171 287.856L319.438 283.923ZM341.165 117.49C418.377 154.197 403.486 268.267 319.438 283.923L320.171 287.856C408.028 271.49 423.594 152.248 342.882 113.877L341.165 117.49ZM292.871 109.559C309.395 107.596 326.137 110.345 341.165 117.49L342.882 113.877C327.173 106.409 309.672 103.535 292.399 105.586L292.871 109.559ZM0.821205 2.58704C52.9599 83.109 146.361 126.963 241.619 115.647L241.147 111.675C147.404 122.811 55.4884 79.6544 4.1788 0.412964L0.821205 2.58704Z" fill="url(#paint0_linear_1363_2230)"/>
  <defs>
    <linearGradient id="paint0_linear_1363_2230" x1="844.449" y1="91.8143" x2="-91.8105" y2="194.109" gradientUnits="userSpaceOnUse">
      <stop stop-color="#1E88E5"/>
      <stop offset="0.979167" stop-color="#989EA4"/>
    </linearGradient>
  </defs>
</svg>